<?xml version="1.0" standalone="no"?>
<!DOCTYPE svg PUBLIC "-//W3C//DTD SVG 20010904//EN"
 "http://www.w3.org/TR/2001/REC-SVG-20010904/DTD/svg10.dtd">
<svg version="1.0" xmlns="http://www.w3.org/2000/svg"
 width="384.000000pt" height="384.000000pt" viewBox="0 0 384.000000 384.000000"
 preserveAspectRatio="xMidYMid meet">
<metadata>
Created by potrace 1.11, written by Peter Selinger 2001-2013
</metadata>
<g transform="translate(0.000000,384.000000) scale(0.100000,-0.100000)"
fill="#000000" stroke="none">
<path d="M211 3828 c-52 -15 -143 -112 -172 -183 l-24 -60 -3 -1630 c-2 -1222
0 -1644 9 -1685 22 -107 87 -202 163 -243 l41 -22 1683 -3 1683 -2 48 21 c84
36 155 130 180 239 7 30 11 591 11 1660 0 1422 -2 1623 -15 1675 -28 104 -87
182 -170 221 l-50 24 -1675 -1 c-1057 -1 -1688 -4 -1709 -11z m1729 -708 c413
-39 635 -125 850 -327 244 -229 352 -504 352 -893 1 -383 -108 -662 -345 -887
-173 -164 -380 -262 -647 -307 -182 -30 -328 -37 -827 -43 l-503 -6 0 1243 0
1243 503 -6 c276 -3 554 -11 617 -17z"/>
<path d="M1460 1899 l0 -761 218 4 c249 6 318 19 461 89 160 79 274 225 328
419 25 94 26 407 0 500 -54 200 -166 341 -337 423 -139 67 -248 87 -484 87
l-186 0 0 -761z"/>
</g>
</svg>
